<svg width="35" height="35" viewBox="0 0 35 35" fill="none" xmlns="http://www.w3.org/2000/svg">
<circle cx="17.5" cy="17.5" r="17.5" fill="white"/>
<path d="M21.646 17.7155C22.6264 16.9442 23.342 15.8864 23.6933 14.6894C24.0445 13.4925 24.014 12.2158 23.6058 11.037C23.1977 9.85817 22.4323 8.83589 21.4161 8.11235C20.3999 7.38881 19.1835 7 17.936 7C16.6886 7 15.4721 7.38881 14.456 8.11235C13.4398 8.83589 12.6744 9.85817 12.2662 11.037C11.8581 12.2158 11.8275 13.4925 12.1788 14.6894C12.53 15.8864 13.2456 16.9442 14.226 17.7155C12.5461 18.3885 11.0803 19.5048 9.98492 20.9454C8.88953 22.386 8.20559 24.0968 8.00603 25.8955C7.99159 26.0268 8.00315 26.1597 8.04006 26.2866C8.07697 26.4134 8.1385 26.5317 8.22114 26.6348C8.38805 26.843 8.63082 26.9763 8.89603 27.0055C9.16125 27.0347 9.42719 26.9573 9.63536 26.7904C9.84352 26.6235 9.97686 26.3807 10.006 26.1155C10.2256 24.1607 11.1577 22.3553 12.6243 21.0443C14.0908 19.7333 15.9889 19.0085 17.956 19.0085C19.9231 19.0085 21.8213 19.7333 23.2878 21.0443C24.7543 22.3553 25.6864 24.1607 25.906 26.1155C25.9332 26.3612 26.0505 26.5882 26.2351 26.7525C26.4198 26.9169 26.6588 27.007 26.906 27.0055H27.016C27.2782 26.9753 27.5178 26.8428 27.6826 26.6367C27.8474 26.4307 27.9241 26.1679 27.896 25.9055C27.6955 24.1017 27.0079 22.3865 25.9069 20.9437C24.8059 19.5009 23.3329 18.385 21.646 17.7155V17.7155ZM17.936 17.0055C17.1449 17.0055 16.3715 16.7709 15.7138 16.3314C15.056 15.8918 14.5433 15.2671 14.2405 14.5362C13.9378 13.8053 13.8585 13.0011 14.0129 12.2251C14.1672 11.4492 14.5482 10.7365 15.1076 10.1771C15.667 9.61766 16.3797 9.2367 17.1557 9.08235C17.9316 8.92801 18.7359 9.00723 19.4668 9.30998C20.1977 9.61273 20.8224 10.1254 21.2619 10.7832C21.7014 11.441 21.936 12.2144 21.936 13.0055C21.936 14.0664 21.5146 15.0838 20.7645 15.8339C20.0143 16.5841 18.9969 17.0055 17.936 17.0055Z" fill="#434343"/>
</svg>
