<svg width="23" height="14" viewBox="0 0 23 14" fill="none" xmlns="http://www.w3.org/2000/svg">
<g clip-path="url(#clip0_105_979)">
<g opacity="0.5">
<path d="M11.5 0.682495C4.31923 0.682495 1.76368 6.2475 1.76368 6.2475C-0.0360081 10.1325 2.08762 13.3175 6.46086 13.3175H16.5211C20.8944 13.3175 23.018 10.1325 21.2363 6.2475C21.2363 6.2475 18.6807 0.682495 11.5 0.682495Z" fill="#75D4D4"/>
</g>
<g opacity="0.23">
<path d="M11.4993 0C3.54464 0 0.701138 6.16 0.701138 6.16C-1.27852 10.465 1.06108 14 5.92023 14H17.0603C21.9195 14 24.259 10.4825 22.2794 6.16C22.2794 6.16 19.4359 0 11.4813 0L11.4993 0Z" fill="#75D4D4"/>
</g>
<g opacity="0.13">
<path d="M11.5 0.682495C3.94129 0.682495 1.22377 6.54499 1.22377 6.54499C-0.665905 10.64 1.56571 14 6.1909 14H16.7911C21.4163 14 23.6479 10.64 21.7582 6.54499C21.7582 6.54499 19.0587 0.682495 11.5 0.682495Z" fill="#75D4D4"/>
</g>
<g opacity="0.3">
<path d="M11.5 0C3.94129 0 1.22377 5.8625 1.22377 5.8625C-0.665905 9.9575 1.56571 13.3175 6.1909 13.3175H16.7911C21.4163 13.3175 23.6479 9.9575 21.7582 5.8625C21.7582 5.8625 19.0587 0 11.5 0V0Z" fill="#75D4D4"/>
</g>
</g>
<defs>
<clipPath id="clip0_105_979">
<rect width="23" height="14" fill="white"/>
</clipPath>
</defs>
</svg>
