<svg width="48" height="48" viewBox="0 0 48 48" fill="none" xmlns="http://www.w3.org/2000/svg">
<path d="M21.9161 33.1111C22.1813 33.1111 22.4356 33.0058 22.6231 32.8183L33.2458 22.1964L32.5411 21.4917L33.2458 22.1963L34.7543 20.6877L34.7567 20.6853L36.2651 19.1664C36.6533 18.7755 36.6523 18.1443 36.2627 17.7547L33.2458 14.7374C32.8562 14.3477 32.2248 14.3467 31.8339 14.735L30.3152 16.2436L30.3128 16.246L28.8045 17.7546L28.8044 17.7547L18.1818 28.3765C17.9943 28.564 17.8889 28.8184 17.8889 29.0836V32.1111C17.8889 32.6634 18.3366 33.1111 18.8889 33.1111H21.9161Z" stroke="#434343" stroke-width="2" stroke-miterlimit="10" stroke-linejoin="round"/>
<path d="M29.4445 17.6666L33.3333 21.5555Z" fill="black"/>
<path d="M29.4445 17.6666L33.3333 21.5555" stroke="#434343" stroke-width="2" stroke-miterlimit="10" stroke-linejoin="round"/>
</svg>
