<?xml version="1.0" encoding="utf-8"?>
<!-- Generator: Adobe Illustrator 27.2.0, SVG Export Plug-In . SVG Version: 6.00 Build 0)  -->
<svg version="1.1" id="レイヤー_1" xmlns="http://www.w3.org/2000/svg" xmlns:xlink="http://www.w3.org/1999/xlink" x="0px"
	 y="0px" viewBox="0 0 23 14" style="enable-background:new 0 0 23 14;" xml:space="preserve">
<style type="text/css">
	.st0{opacity:0.2;}
	.st1{clip-path:url(#SVGID_00000074437993233834905520000012867880500003932840_);}
	.st2{opacity:0.5;}
	.st3{fill:#B2B1B1;}
	.st4{opacity:0.23;}
	.st5{opacity:0.13;}
	.st6{opacity:0.3;}
</style>
<g class="st0">
	<defs>
		<rect id="SVGID_1_" y="0" class="st0" width="23" height="14"/>
	</defs>
	<clipPath id="SVGID_00000001636814429764335240000011775740753095360911_">
		<use xlink:href="#SVGID_1_"  style="overflow:visible;"/>
	</clipPath>
	<g style="clip-path:url(#SVGID_00000001636814429764335240000011775740753095360911_);">
		<g class="st2">
			<path class="st3" d="M11.5,0.7c-7.2,0-9.7,5.6-9.7,5.6c-1.8,3.9,0.3,7.1,4.7,7.1h10.1c4.4,0,6.5-3.2,4.7-7.1
				C21.2,6.2,18.7,0.7,11.5,0.7z"/>
		</g>
		<g class="st4">
			<path class="st3" d="M11.5,0C3.5,0,0.7,6.2,0.7,6.2c-2,4.3,0.4,7.8,5.2,7.8h11.1c4.9,0,7.2-3.5,5.2-7.8C22.3,6.2,19.4,0,11.5,0
				L11.5,0z"/>
		</g>
		<g class="st5">
			<path class="st3" d="M11.5,0.7C3.9,0.7,1.2,6.5,1.2,6.5c-1.9,4.1,0.3,7.5,5,7.5h10.6c4.6,0,6.9-3.4,5-7.5
				C21.8,6.5,19.1,0.7,11.5,0.7z"/>
		</g>
		<g class="st6">
			<path class="st3" d="M11.5,0C3.9,0,1.2,5.9,1.2,5.9c-1.9,4.1,0.3,7.5,5,7.5h10.6c4.6,0,6.9-3.4,5-7.5C21.8,5.9,19.1,0,11.5,0
				L11.5,0z"/>
		</g>
	</g>
</g>
</svg>
