<svg width="20" height="13" viewBox="0 0 20 13" fill="none" xmlns="http://www.w3.org/2000/svg">
<g opacity="0.9" clip-path="url(#clip0_172_440)">
<g opacity="0.5">
<path d="M10 0.599976C3.75587 0.599976 1.53365 5.49228 1.53365 5.49228C-0.0312982 8.90767 1.81534 11.7077 5.61815 11.7077H14.3662C18.169 11.7077 20.0157 8.90767 18.4664 5.49228C18.4664 5.49228 16.2441 0.599976 10 0.599976Z" fill="#B2B1B1" fill-opacity="0.3"/>
</g>
<g opacity="0.23">
<path d="M9.99947 0C3.08241 0 0.6098 5.41538 0.6098 5.41538C-1.11164 9.2 0.922789 12.3077 5.14814 12.3077H14.8352C19.0605 12.3077 21.0949 9.21538 19.3735 5.41538C19.3735 5.41538 16.9009 0 9.98382 0L9.99947 0Z" fill="#B2B1B1" fill-opacity="0.3"/>
</g>
<g opacity="0.13">
<path d="M10 0.599976C3.42723 0.599976 1.06416 5.75382 1.06416 5.75382C-0.579034 9.35382 1.3615 12.3077 5.38341 12.3077H14.6009C18.6228 12.3077 20.5634 9.35382 18.9202 5.75382C18.9202 5.75382 16.5728 0.599976 10 0.599976Z" fill="#B2B1B1" fill-opacity="0.3"/>
</g>
<g opacity="0.3">
<path d="M10 0C3.42723 0 1.06416 5.15384 1.06416 5.15384C-0.579034 8.75384 1.3615 11.7077 5.38341 11.7077H14.6009C18.6228 11.7077 20.5634 8.75384 18.9202 5.15384C18.9202 5.15384 16.5728 0 10 0V0Z" fill="#B2B1B1" fill-opacity="0.3"/>
</g>
</g>
<defs>
<clipPath id="clip0_172_440">
<rect width="20" height="12.3077" fill="white"/>
</clipPath>
</defs>
</svg>
