<svg width="33" height="33" viewBox="0 0 33 33" fill="none" xmlns="http://www.w3.org/2000/svg">
<path d="M9.12913 28.8667C9.39433 28.8667 9.64867 28.7614 9.83621 28.5738L23.8581 14.553L23.151 13.8458L23.8581 14.5529L25.8493 12.5615L25.8517 12.5591L27.8428 10.5542C28.2311 10.1633 28.23 9.53202 27.8405 9.14244L23.8581 5.15964C23.4685 4.76999 22.8371 4.76892 22.4462 5.15725L20.4416 7.14865L20.4392 7.15104L18.4481 9.14237L18.448 9.14244L4.42622 23.1633C4.23867 23.3508 4.1333 23.6052 4.1333 23.8704V27.8667C4.1333 28.419 4.58102 28.8667 5.1333 28.8667H9.12913Z" stroke="#434343" stroke-width="2" stroke-miterlimit="10" stroke-linejoin="round"/>
<path d="M19.0667 8.80005L24.2 13.9334Z" fill="black"/>
<path d="M19.0667 8.80005L24.2 13.9334" stroke="#434343" stroke-width="2" stroke-miterlimit="10" stroke-linejoin="round"/>
</svg>
